<?xml version="1.0" encoding="UTF-8"?>
<svg id="Layer_1" data-name="Layer 1" xmlns="http://www.w3.org/2000/svg" version="1.1" xmlns:xlink="http://www.w3.org/1999/xlink" viewBox="0 0 511.7 511.7">
  <defs>
    <style>
      .cls-1 {
        fill: url(#linear-gradient);
      }

      .cls-1, .cls-2 {
        stroke-width: 0px;
      }

      .cls-2 {
        fill: url(#linear-gradient-2);
      }
    </style>
    <linearGradient id="linear-gradient" x1="-71.1" y1="337.3" x2="225.9" y2="165.8" gradientTransform="translate(0 514) scale(1 -1)" gradientUnits="userSpaceOnUse">
      <stop offset="0" stop-color="#6ee7b7"/>
      <stop offset=".9" stop-color="#10b981"/>
    </linearGradient>
    <linearGradient id="linear-gradient-2" x1="285.6" y1="350.5" x2="582.8" y2="178.9" gradientTransform="translate(0 514) scale(1 -1)" gradientUnits="userSpaceOnUse">
      <stop offset="0" stop-color="#10b981"/>
      <stop offset=".9" stop-color="#047857"/>
    </linearGradient>
  </defs>
  <path class="cls-1" d="M91.8,182.4v-69c0-39.4-13.4-54.2-48.6-54.2h-12.3V0h20.7c82.7,0,117.9,31.8,117.9,105.3v55.3c0,41.1,18.2,56.7,66.2,57v77.7c-48,.3-66.2,15.9-66.2,57v55.3c0,72.9-34.9,104.2-117.9,104.2h-20.7v-59.5h12.3c35.2,0,48.6-14.8,48.6-54.2v-67.6c0-40.2,25.7-64.2,73.2-69.5v-8.9c-47.5-5-73.2-29.1-73.2-69.6h0Z"/>
  <path class="cls-2" d="M420,329v69c0,39.4,13.4,54.5,48.6,54.5h12.3v59.2h-20.7c-83,0-118.2-31.8-118.2-105.6v-55.3c0-41.1-17.9-56.4-65.9-57v-77.6c47.8-.3,65.9-15.6,65.9-57v-55c0-72.9,35.2-104.2,118.2-104.2h20.7v59.2h-12.3c-35.5,0-48.6,15.1-48.6,54.5v67.3c0,40.5-25.7,64.5-73.2,69.6v8.9c47.5,5.3,73.2,29.3,73.2,69.5Z"/>
</svg>